<?xml version="1.0" standalone="yes"?>
<svg xmlns="http://www.w3.org/2000/svg" width="512" height="512">
<path style="fill:#011117; stroke:none;" d="M0 0L0 512L185 512L185 511C166.04 508.16 155.986 488.554 136 487.09C107.813 485.026 77.7552 529.849 51.1883 500.957C43.819 492.942 43.4761 482.056 45.8989 472C50.723 451.978 60.6292 432.923 66.2901 413C81.0427 361.081 83.3587 306.58 83.9961 253C84.3837 220.424 80.0875 185.703 89 154C82.0695 154 74.675 154.807 68 152.64C28.2769 139.744 38 90.4755 38 58C38 39.3098 32.9016 8.37585 56 1L38 0L0 0z"/>
<path style="fill:#f8ac31; stroke:none;" d="M114 98C105.704 98 97.4936 98.479 91.3403 91.8148C86.1993 86.2469 87 79.0127 87 72L87 31C86.9954 19.0797 84.1406 4.7641 71 0.800171C43.9846 -7.34918 38 20.0861 38 40L38 95C38 106.38 36.8763 118.168 41.0687 129C46.7236 143.611 61.3336 153.923 77 153.999C80.2187 154.015 85.6849 154.996 88.4367 152.972C93.9136 148.945 95.8435 133.267 98.7816 127C103.314 117.333 110.786 108.086 114 98z"/>
<path style="fill:#011117; stroke:none;" d="M70 0L70 1C94.8455 8.93372 87 50.0944 87 70C87 81.0483 85.9552 93.2635 99 97.1998C116.021 102.336 121.831 87.439 132.015 77C148.614 59.9844 168.193 46.6628 190 37.2809C239.225 16.1028 297.035 20.8946 343 47.8611C357.352 56.2809 370.568 66.8231 381.91 79C391.453 89.2445 396.799 102.088 413 97.1998C426.045 93.2635 425 81.0483 425 70C425 50.0517 417.089 8.9545 442 1L409 0L333 0L70 0z"/>
<path style="fill:#f8ac31; stroke:none;" d="M398 98C401.198 108.036 408.675 117.373 413.219 127C416.164 133.239 418.127 148.975 423.563 152.972C426.315 154.996 431.781 154.015 435 153.999C450.666 153.923 465.276 143.611 470.931 129C475.124 118.168 474 106.38 474 95L474 40C474 20.0702 468.075 -7.367 441 0.800171C427.792 4.78442 425.001 19.0617 425 31L425 72C425 79.0128 425.801 86.2469 420.66 91.8148C414.506 98.479 406.296 98 398 98z"/>
<path style="fill:#011117; stroke:none;" d="M456 0L456 1C479.164 8.39673 474 39.2542 474 58C474 90.4755 483.723 139.744 444 152.64C437.325 154.807 429.931 154 423 154C432.296 187.066 427.837 223.989 428.001 258C428.25 309.698 431.305 362.98 445.579 413C451.266 432.93 461.274 451.964 466.101 472C468.501 481.961 468.091 493.04 460.812 500.957C434.197 529.902 404.227 485.023 376 487.09C355.986 488.556 345.945 508.162 327 511L327 512L512 512L512 0L456 0z"/>
<path style="fill:#03eea4; stroke:none;" d="M243 24.4244C220.859 27.3329 200.316 31.4217 180 41.2585C165.855 48.1071 152.908 57.2255 141 67.4283C109.102 94.7586 88.1323 138.389 84.1698 180C81.9536 203.272 84.112 227.617 83.9992 251C83.828 286.494 82.7809 322.813 77.5725 358C72.5863 391.686 63.8497 424.371 51.1998 456C45.694 469.766 39.2514 488.027 50.3403 500.957C77.246 532.329 110.036 481.729 139 487.666C152.847 490.504 160.283 500.217 172 506.826C180.918 511.856 190.964 512.649 201 511.91C223.548 510.248 234.739 484.782 259 487.171C274.994 488.745 282.874 499.862 296 507.096C304.853 511.976 315.065 512.894 325 511.826C345.713 509.601 356.504 487.912 378 487.04C403.986 485.986 417.727 514.453 445 509.535C463.336 506.23 469.574 490.958 466.715 474C464.112 458.565 455.56 443.868 450.745 429C442.191 402.583 436.455 375.562 433.155 348C428.759 311.282 428 273.963 428 237C428 212.485 429.951 187.184 425.389 163C417.101 119.07 389.302 77.223 352 52.8611C337.763 43.5626 322.392 35.8357 306 31.1412C286.204 25.4717 263.599 21.7184 243 24.4244z"/>
<path style="fill:#daf5fd; stroke:none;" d="M247 106.425C230.404 108.684 214.647 113.764 201 123.757C138.252 169.704 159.245 268.295 233 288.151C243.569 290.997 255.08 292.021 266 290.715C280.421 288.99 294.861 284.393 307 276.251C371.623 232.903 357.353 127.19 279 108.654C268.709 106.22 257.53 104.992 247 106.425M97 129L98 130L97 129z"/>
<path style="fill:#03eea4; stroke:none;" d="M250 145L250 146L255 146L250 145z"/>
<path style="fill:#011117; stroke:none;" d="M233 151C234.601 155.839 238.277 159.782 238.8 165C239.809 175.06 230.293 185.555 220 184.775C216.169 184.484 210.919 180.115 207.279 181.418C203.199 182.879 203.101 191.498 203.015 195C202.591 212.251 208.451 228.37 222 239.674C247.632 261.06 288.67 253.097 303.73 223C325.309 179.876 277.76 125.557 233 151z"/>
<path style="fill:#03eea4; stroke:none;" d="M262 145L263 146L262 145M244.667 146.333L245.333 146.667L244.667 146.333z"/>
<path style="fill:#f8ac31; stroke:none;" d="M268 146L269 147L268 146z"/>
<path style="fill:#03eea4; stroke:none;" d="M240 147L241 148L240 147M237 148L238 149L237 148z"/>
<path style="fill:#daf5fd; stroke:none;" d="M90 149L91 150L90 149z"/>
<path style="fill:#03eea4; stroke:none;" d="M235 149L236 150L235 149M277 149L278 150L277 149M233 150L234 151L233 150M279 150L280 151L279 150M281 151L282 152L281 151M233 153L234 154L233 153z"/>
<path style="fill:#f8ac31; stroke:none;" d="M286 154L287 155L286 154z"/>
<path style="fill:#03eea4; stroke:none;" d="M236 157L237 158L236 157z"/>
<path style="fill:#f8ac31; stroke:none;" d="M290 157L291 158L290 157z"/>
<path style="fill:#03eea4; stroke:none;" d="M291 158L292 159L291 158M237 159L238 160L237 159M292 159L293 160L292 159M294 161L295 162L294 161M238 162L239 163L238 162M295 162L296 163L295 162M296 163L297 164L296 163M299 167L300 168L299 167M238 170L239 171L238 170M301 170L302 171L301 170M237 173L238 174L237 173z"/>
<path style="fill:#f8ac31; stroke:none;" d="M303 173L304 174L303 173M236 175L237 176L236 175z"/>
<path style="fill:#03eea4; stroke:none;" d="M235 177L236 178L235 177M234 178L235 179L234 178M233 179L234 180L233 179M206 180L207 181L206 180M208 180L209 181L208 180M232 180L233 181L232 180M306 180L307 181L306 180M205 181L206 182L205 181M210 181L211 182L210 181M229 182L230 183L229 182M214 183L215 184L214 183M227 183L228 184L227 183M307 183L308 184L307 183M204 184L205 185L204 184M217.667 184.333L218.333 184.667L217.667 184.333M223.667 184.333L224.333 184.667L223.667 184.333M308 187L309 188L308 187M203.333 188.667L203.667 189.333L203.333 188.667z"/>
<path style="fill:#f8ac31; stroke:none;" d="M309 193L310 194L309 193z"/>
<path style="fill:#03eea4; stroke:none;" d="M309 194L309 198L310 198L309 194z"/>
<path style="fill:#f8ac31; stroke:none;" d="M202 197L203 198L202 197z"/>
<path style="fill:#03eea4; stroke:none;" d="M202 198L203 199L202 198z"/>
<path style="fill:#f8ac31; stroke:none;" d="M202 199L203 200L202 199z"/>
<path style="fill:#03eea4; stroke:none;" d="M309 199L309 203L310 203L309 199z"/>
<path style="fill:#f8ac31; stroke:none;" d="M309 203L310 204L309 203z"/>
<path style="fill:#03eea4; stroke:none;" d="M203.333 207.667L203.667 208.333L203.333 207.667M308 209L309 210L308 209M204 212L205 213L204 212M307 213L308 214L307 213M205 215L206 216L205 215M306 216L307 217L306 216M206 218L207 219L206 218M207 220L208 221L207 220z"/>
<path style="fill:#f8ac31; stroke:none;" d="M304 221L305 222L304 221z"/>
<path style="fill:#03eea4; stroke:none;" d="M208 222L209 223L208 222z"/>
<path style="fill:#f8ac31; stroke:none;" d="M303 223L304 224L303 223z"/>
<path style="fill:#03eea4; stroke:none;" d="M209 224L210 225L209 224M210 226L211 227L210 226z"/>
<path style="fill:#f8ac31; stroke:none;" d="M300 228L301 229L300 228z"/>
<path style="fill:#03eea4; stroke:none;" d="M212 229L213 230L212 229M213 230L214 231L213 230z"/>
<path style="fill:#f8ac31; stroke:none;" d="M297 232L298 233L297 232z"/>
<path style="fill:#03eea4; stroke:none;" d="M296 233L297 234L296 233M216 234L217 235L216 234M295 234L296 235L295 234M217 235L218 236L217 235M218 236L219 237L218 236M219 237L220 238L219 237M291 238L292 239L291 238M290 239L291 240L290 239M224 241L225 242L224 241M286 242L287 243L286 242M227 243L228 244L227 243z"/>
<path style="fill:#f8ac31; stroke:none;" d="M283 244L284 245L283 244z"/>
<path style="fill:#03eea4; stroke:none;" d="M230 245L231 246L230 245M281 245L282 246L281 245M277 247L278 248L277 247M237 248L238 249L237 248z"/>
<path style="fill:#f8ac31; stroke:none;" d="M275 248L276 249L275 248z"/>
<path style="fill:#03eea4; stroke:none;" d="M239 249L240 250L239 249M272 249L273 250L272 249M243 250L244 251L243 250M268 250L269 251L268 250M248 251L249 252L248 251M263 251L264 252L263 251z"/>
<path style="fill:#011117; stroke:none;" d="M196 437C196.086 406.002 223.74 396 250 396C274.255 396 299.98 394.552 312.623 420C315.26 425.308 315.916 431.248 317 437C325.501 437 335.146 437.895 341.956 431.786C348.508 425.909 347.69 418.979 348.039 411C348.682 396.331 350.925 380.935 344.688 367C334.311 343.818 312.845 336.003 289 336C289 344.549 290.838 354.999 284.66 361.895C276.107 371.441 248.715 370.179 237 367.471C232.871 366.516 229.082 364.245 226.394 360.957C221.046 354.413 223 343.905 223 336C202.096 336.002 181.477 341.572 170.337 361C161.537 376.349 162.75 393.052 163.91 410C164.479 418.296 163.156 425.607 170.044 431.786C177.08 438.098 187.235 437 196 437z"/>
<path style="fill:#daf5fd; stroke:none;" d="M223 336C223 344.219 221.068 354.971 226.638 361.815C234.529 371.51 257.716 367.004 269 367C273.817 366.998 278.763 367.214 282.815 364.146C287.874 360.314 293.571 341.918 287.397 337.028C285.125 335.228 280.693 336 278 336L253 336L223 336z"/>
<path style="fill:#03eea4; stroke:none;" d="M288 355L289 356L288 355M223 356L224 357L223 356z"/>
<path style="fill:#f8ac31; stroke:none;" d="M224 358L225 359L224 358z"/>
<path style="fill:#03eea4; stroke:none;" d="M287 358L288 359L287 358M225 360L226 361L225 360M285 361L286 362L285 361M229 364L230 365L229 364M282 364L283 365L282 364M278 366L279 367L278 366M236 367L236 368L276 368C265.488 363.589 247.434 367 236 367z"/>
<path style="fill:#f73691; stroke:none;" d="M196 437L317 437C316.275 431.296 315.484 425.284 313.096 420C301.615 394.602 275.496 396 252 396C224.53 396 196.022 403.95 196 437z"/>
<path style="fill:#011117; stroke:none;" d="M204 511L204 512L308 512C286.175 499.737 265.897 479.47 239 490.454C226.109 495.718 218.38 508.524 204 511z"/>
</svg>
